<svg width="16" height="16" viewBox="0 0 16 16" fill="none" xmlns="http://www.w3.org/2000/svg">
<g clip-path="url(#clip0_172_735)">
<path d="M15.6463 6.80019C15.0799 6.35379 14.0223 6.73459 13.1983 7.64979C12.4287 7.43539 11.7455 7.48819 11.1631 7.81619C10.0479 8.44499 9.62554 9.89139 9.46873 10.9906C9.44473 11.1602 9.42234 11.333 9.39834 11.5058C9.14874 13.4082 8.91193 15.2066 6.65593 15.2066C6.61913 15.2066 6.58233 15.2066 6.54393 15.205C5.90393 15.189 5.44313 14.9906 5.13593 14.597C4.56953 13.8706 4.66713 12.6834 4.73913 12.1906C4.96313 12.0898 5.12153 11.869 5.12953 11.6082L5.16313 10.6338L6.35833 10.2786C6.50713 10.2338 6.62233 10.1394 6.70553 10.0226C6.91993 10.0706 7.18713 10.0594 7.37593 9.94099C7.70713 9.73459 8.19034 9.33779 8.79193 8.58739C9.44954 7.76659 9.61114 7.10579 9.62714 6.67699C9.63514 6.37139 9.42233 6.06099 9.26394 5.97459C9.10553 5.88819 9.07674 6.04979 9.10713 6.35379C9.15194 6.81139 9.07994 7.50739 8.48953 8.26419C8.47833 8.27699 8.46873 8.28659 8.45914 8.29939L8.46393 8.26579C8.60474 8.04819 8.72634 7.81939 8.81913 7.57459C9.77914 5.03219 7.70393 2.06579 7.61433 1.94099C7.59513 1.91379 7.56953 1.89619 7.54393 1.87539C7.60313 1.73939 7.58873 1.61619 7.48953 1.55219C7.33433 1.45139 7.09113 1.14899 6.95033 0.876992L6.70073 0.400192C6.56153 0.129792 6.26713 0.0817916 6.04633 0.292992L5.42713 0.894592C5.20473 1.10579 5.24793 1.39219 5.51833 1.53459L5.95513 1.75859C6.22553 1.90099 6.52153 2.15699 6.61753 2.33139C6.68953 2.46099 6.85593 2.48019 7.02713 2.39219C7.20313 2.64819 8.91193 5.24179 8.12793 7.31699C8.09593 7.40179 8.04633 7.48019 8.00473 7.56179L7.99993 7.56339C7.95193 7.55219 7.90553 7.53459 7.85593 7.53459C7.73273 7.53459 7.61753 7.57139 7.52153 7.63219L7.66713 7.77139C7.57913 7.87859 7.51993 8.00979 7.51993 8.15859C7.51993 8.19539 7.52793 8.23059 7.53433 8.26579C7.25913 8.56659 6.91513 8.83539 6.49913 9.06419C6.34553 8.97779 6.15993 8.95059 5.97913 9.00499L4.52313 9.43699L2.96473 8.94419C2.78713 8.88819 2.60153 8.91219 2.44953 8.99539C1.70713 8.55539 1.20153 7.99379 0.943934 7.31699C0.123134 5.14259 2.04153 2.39699 2.06073 2.36979C2.06233 2.36499 2.06233 2.36019 2.06713 2.35539C2.06713 2.35539 2.11193 2.39859 2.16793 2.44819C2.22393 2.50099 2.34553 2.40179 2.44153 2.22739C2.53593 2.05139 2.83513 1.79539 3.10553 1.65459L3.54073 1.42899C3.81273 1.28819 3.85433 1.00179 3.63353 0.788992L3.01273 0.188992C2.79193 -0.0238084 2.50073 0.0241916 2.35833 0.296192L2.11033 0.772992C1.96793 1.04499 1.72633 1.34579 1.57113 1.44819C1.41273 1.54739 1.34393 1.68339 1.41273 1.74739L1.53913 1.86579C1.50873 1.88659 1.48153 1.90899 1.45753 1.94099C1.36793 2.06579 -0.707266 5.03219 0.252734 7.57459C0.575934 8.42579 1.19673 9.11859 2.10553 9.64659C2.12953 9.90099 2.30393 10.1282 2.56313 10.2114L3.83513 10.613L3.80153 11.5618C3.79673 11.7586 3.87833 11.9378 4.00953 12.0658C3.92153 12.653 3.80473 14.0898 4.55193 15.0482C4.99833 15.621 5.66233 15.9218 6.52633 15.9426C6.57273 15.9458 6.61753 15.9458 6.66233 15.9458C9.55993 15.9458 9.87674 13.541 10.1311 11.6034C10.1535 11.4338 10.1759 11.2642 10.1999 11.0962C10.3887 9.77299 10.8591 8.83699 11.5263 8.46099C11.8607 8.27059 12.2623 8.21779 12.7199 8.29779C12.1455 9.24659 12.0735 10.237 12.5967 10.653C13.2031 11.133 14.3775 10.6594 15.2191 9.59539C16.0607 8.53139 16.2511 7.28019 15.6463 6.80019ZM8.35353 8.42579C8.30394 8.48499 8.25434 8.54899 8.20634 8.60339C8.25434 8.54259 8.30233 8.48179 8.34714 8.41939L8.35353 8.42579ZM14.1375 8.71539C13.8223 9.11539 13.3823 9.29299 13.1551 9.11219C12.9887 8.98099 12.9839 8.69459 13.1151 8.39379C13.2351 8.43219 13.3567 8.47379 13.4815 8.52659C13.6719 8.60659 13.8863 8.52019 13.9663 8.33139C14.0463 8.14419 13.9583 7.92659 13.7695 7.84659C13.7135 7.82259 13.6607 7.80499 13.6047 7.78579C13.8623 7.59699 14.1327 7.53939 14.2943 7.66899C14.5231 7.84979 14.4511 8.31859 14.1375 8.71539Z" fill="#DBDDE0"/>
</g>
<defs>
<clipPath id="clip0_172_735">
<rect width="16" height="16" fill="white"/>
</clipPath>
</defs>
</svg>
