<svg width="36" height="34" viewBox="0 0 36 34" fill="none" xmlns="http://www.w3.org/2000/svg">
<path d="M1.75191 12.0284H34.2479C34.2479 12.0284 35.1559 11.2844 34.2479 10.3364L18.0039 0.776367L1.75191 10.3324C1.75191 10.3324 0.627906 11.3444 1.75191 12.0284ZM35.3079 31.9124L33.3479 30.2084C33.2399 30.1164 32.9959 30.0404 32.7959 30.0404L3.60391 30.0844C3.40791 30.0844 3.14791 30.1564 3.02791 30.2444L0.719906 31.9204C0.599906 32.0084 0.503906 32.1684 0.503906 32.2764V33.0244C0.503906 33.1324 0.663906 33.2244 0.863906 33.2244H35.1479C35.3439 33.2244 35.5079 33.1364 35.5079 33.0244V32.2804C35.4999 32.1684 35.4119 32.0044 35.3079 31.9124ZM30.1599 13.3524H33.1519V28.3484H30.1599V13.3524ZM25.2639 13.3524H28.2559V28.3484H25.2639V13.3524ZM8.20791 13.3524H11.1999V28.3484H8.20791V13.3524ZM3.31191 13.3524H6.30391V28.3484H3.31191V13.3524ZM18.0639 28.3284C18.2919 28.3284 18.5199 28.2964 18.7359 28.2324V26.4164C19.6639 26.2084 20.3719 25.8084 20.8599 25.2164C21.3439 24.6284 21.5879 23.9044 21.5879 23.0484C21.5879 22.5364 21.5239 22.1124 21.3999 21.7724C21.2759 21.4324 21.0999 21.1444 20.8759 20.9124C20.6519 20.6764 20.3759 20.4764 20.0519 20.3084C19.7279 20.1404 19.3679 19.9724 18.9719 19.8084L18.0319 19.4164C17.8759 19.3524 17.7199 19.2844 17.5639 19.2124C17.4079 19.1404 17.2679 19.0524 17.1399 18.9524C17.0159 18.8524 16.9159 18.7324 16.8439 18.5844C16.7719 18.4364 16.7359 18.2604 16.7359 18.0524C16.7359 17.8124 16.7839 17.6164 16.8759 17.4644C16.9679 17.3124 17.0879 17.1964 17.2359 17.1124C17.3839 17.0284 17.5479 16.9724 17.7279 16.9484C17.9119 16.9244 18.0919 16.9084 18.2679 16.9084C18.5599 16.9084 18.8199 16.9204 19.0519 16.9484C19.2799 16.9764 19.4879 17.0084 19.6719 17.0484C19.8559 17.0884 20.0279 17.1444 20.1879 17.2044C20.3479 17.2684 20.5079 17.3284 20.6639 17.3924C20.9359 16.8084 21.1039 16.2124 21.1639 15.6084C20.7359 15.4604 20.3279 15.3444 19.9439 15.2564C19.5559 15.1684 19.1559 15.1084 18.7359 15.0764V13.4644C18.4959 13.4004 18.2679 13.3724 18.0479 13.3724C17.8199 13.3724 17.5919 13.4044 17.3759 13.4644V15.1244C16.4359 15.2404 15.6999 15.5684 15.1679 16.1124C14.6359 16.6564 14.3679 17.3964 14.3679 18.3364C14.3679 18.7764 14.4239 19.1444 14.5319 19.4484C14.6399 19.7524 14.7999 20.0164 14.9999 20.2404C15.2039 20.4644 15.4479 20.6564 15.7279 20.8204C16.0079 20.9844 16.3239 21.1364 16.6679 21.2844L17.4999 21.6444C17.6759 21.7284 17.8599 21.8084 18.0479 21.8804C18.2359 21.9524 18.4039 22.0404 18.5559 22.1484C18.7079 22.2524 18.8319 22.3844 18.9319 22.5484C19.0319 22.7084 19.0799 22.9164 19.0799 23.1684C19.0799 23.6684 18.8999 24.0324 18.5399 24.2564C18.1799 24.4804 17.6719 24.5924 17.0119 24.5924C16.5719 24.5924 16.1599 24.5604 15.7759 24.4924C15.3879 24.4244 14.9759 24.3004 14.5399 24.1244C14.4239 24.4604 14.3239 24.7804 14.2439 25.0884C14.1599 25.3964 14.1039 25.7004 14.0719 26.0044C14.3319 26.1084 14.5839 26.1964 14.8239 26.2724C15.0639 26.3444 15.3079 26.4044 15.5519 26.4524C15.7959 26.5004 16.0559 26.5324 16.3279 26.5524C16.5999 26.5724 16.9079 26.5844 17.2519 26.5844H17.3759V28.2444C17.6039 28.2964 17.8359 28.3284 18.0639 28.3284Z" fill="#558EFF"/>
</svg>
