<svg width="16" height="16" viewBox="0 0 16 16" fill="none" xmlns="http://www.w3.org/2000/svg">
<g clip-path="url(#clip0_172_745)">
<path d="M5.21114 4.46222C5.31834 4.68142 5.43354 4.87342 5.47834 5.10222C5.60314 5.73742 5.88954 6.30862 6.31834 6.78062C6.59034 7.07982 6.57434 7.38702 6.48154 7.69582C6.40154 7.96302 6.42554 8.15822 6.60314 8.36302C6.83994 8.63822 7.07674 8.91182 7.40474 9.08622C7.78394 9.28942 8.31514 9.25422 8.74394 8.91982C9.09434 8.64622 9.35674 8.29582 9.59994 7.92782C9.64314 7.86382 9.62554 7.80782 9.61274 7.74702C9.59674 7.67182 9.58234 7.59662 9.56634 7.52302C9.50074 7.22062 9.59034 6.98062 9.79674 6.74382C10.2095 6.26862 10.4847 5.71502 10.6127 5.09582C10.6591 4.87182 10.7775 4.68622 10.9023 4.48782C10.8991 4.56462 10.9023 4.64302 10.8911 4.71982C10.7727 5.51022 10.8623 6.29102 11.0031 7.06542C11.0623 7.38382 11.1663 7.69742 11.2943 7.99982C11.3695 8.17582 11.5487 8.17262 11.6863 8.22862C12.1839 8.42702 12.6671 8.65102 13.1247 8.93262C13.5391 9.18702 13.7487 9.57422 13.8959 10.011C14.1263 10.6926 14.3279 11.3822 14.4655 12.091C14.6159 12.8686 14.6751 13.6494 14.6303 14.4398C14.6095 14.7854 14.3919 14.9918 14.1023 15.1006C13.4159 15.3582 12.7087 15.5582 11.9887 15.7054C11.5647 15.7918 11.1391 15.8574 10.7167 15.939C10.3967 16.0014 10.0831 15.9934 9.76474 15.995C8.92634 16.0014 8.08634 15.9838 7.24794 16.0014C6.44154 16.0174 5.64954 15.9326 4.85594 15.7838C4.03834 15.6318 3.23194 15.4494 2.44474 15.1886C2.22234 15.115 2.00314 15.0318 1.78714 14.9406C1.45274 14.7998 1.39994 14.499 1.37594 14.1982C1.33914 13.7294 1.42394 13.2654 1.47354 12.803C1.54074 12.1806 1.64794 11.563 1.80154 10.955C1.94554 10.3838 2.11994 9.82062 2.43354 9.31982C2.68474 8.91822 3.09114 8.69742 3.52794 8.53742C3.89114 8.40622 4.25594 8.27982 4.61914 8.14702C4.70234 8.11662 4.76154 8.06382 4.79994 7.96782C5.01754 7.40942 5.14234 6.83502 5.19674 6.23662C5.24474 5.71822 5.26714 5.20462 5.19034 4.68782C5.18234 4.62222 5.16794 4.55182 5.21114 4.46222ZM7.56154 13.7134C7.56154 13.8606 7.56794 13.9822 7.55994 14.1038C7.55194 14.2254 7.59034 14.2782 7.71994 14.2718C7.91194 14.2638 8.10394 14.2638 8.29594 14.2718C8.42714 14.2782 8.46074 14.2206 8.45754 14.1022C8.45114 13.8718 8.46234 13.6414 8.45274 13.411C8.44794 13.2734 8.48794 13.2142 8.63674 13.2206C8.86714 13.2302 9.09754 13.2174 9.32794 13.2254C9.45434 13.2302 9.50074 13.179 9.49914 13.0574C9.49594 12.8654 9.49114 12.6734 9.50074 12.483C9.50874 12.347 9.44314 12.3214 9.32794 12.323C9.11034 12.3278 8.89274 12.3246 8.67514 12.3278C8.51674 12.331 8.44154 12.2702 8.45114 12.099C8.46394 11.8766 8.45274 11.651 8.45754 11.427C8.45914 11.3214 8.42394 11.2782 8.31194 11.2814C8.11354 11.2878 7.91514 11.2862 7.71674 11.2814C7.60474 11.2798 7.55514 11.3166 7.55834 11.4366C7.56474 11.667 7.55194 11.8974 7.56314 12.1278C7.56954 12.275 7.50234 12.3214 7.37114 12.3214C7.20474 12.3214 7.03834 12.323 6.87194 12.3246C6.51514 12.3294 6.51514 12.331 6.51674 12.6942C6.51834 13.2238 6.51834 13.2206 7.04474 13.2254C7.20954 13.227 7.41914 13.1534 7.52474 13.2606C7.63354 13.3646 7.54394 13.5758 7.56154 13.7134ZM5.88474 3.73582C5.66714 3.73582 5.44954 3.73102 5.23194 3.73742C5.08634 3.74222 5.02714 3.68782 5.02234 3.53742C5.00954 3.16622 4.98394 2.79182 5.03514 2.42542C5.15834 1.55342 5.61914 0.577417 6.76794 0.227017C7.28474 0.0686172 7.80474 -0.0497828 8.33754 0.0190172C9.33914 0.147017 10.2207 0.519817 10.7103 1.47502C11.0255 2.08782 11.0239 2.76782 10.9967 3.44142C10.9951 3.50222 11.0047 3.56462 10.8895 3.54222C10.7999 3.52462 10.7855 3.64142 10.7711 3.70862C10.7487 3.81422 10.7183 3.83022 10.6175 3.77742C10.1807 3.54862 9.89434 3.19182 9.71834 2.74222C9.67034 2.61902 9.64954 2.59662 9.52634 2.68302C8.72794 3.23982 7.83994 3.55182 6.87514 3.67982C6.54554 3.72462 6.21594 3.73902 5.88474 3.73582Z" fill="#DBDDE0"/>
</g>
<defs>
<clipPath id="clip0_172_745">
<rect width="16" height="16" fill="white"/>
</clipPath>
</defs>
</svg>
