<svg width="16" height="16" viewBox="0 0 16 16" fill="none" xmlns="http://www.w3.org/2000/svg">
<path d="M14.2682 15.2881C14.2042 14.6753 14.1882 14.0577 14.1274 13.4433C14.0362 12.5233 13.905 11.6081 13.633 10.7201C13.4858 10.2449 13.2618 9.83208 12.8154 9.56968C12.3882 9.31848 11.9226 9.16968 11.4554 9.02408C11.2922 8.97288 11.321 9.08808 11.3306 9.17128C11.3738 9.57288 11.337 9.96968 11.2538 10.3617C11.2266 10.4881 11.2698 10.5457 11.3786 10.6081C11.8394 10.8657 12.1018 11.2593 12.1306 11.7921C12.1594 12.3409 12.0474 12.8801 12.0138 13.4241C11.9914 13.7937 11.9514 14.1649 11.7962 14.5089C11.609 14.9249 11.2858 15.0897 10.8442 15.0049C10.6762 14.9729 10.5658 14.8961 10.593 14.7105C10.6202 14.5281 10.7466 14.4641 10.9146 14.4977C11.1258 14.5393 11.249 14.4401 11.3354 14.2673C11.3946 14.1473 11.4266 14.0161 11.4394 13.8833C11.5018 13.2705 11.569 12.6577 11.6186 12.0433C11.6634 11.4881 11.3658 11.0673 10.873 10.9553C10.3642 10.8401 9.92578 11.0705 9.71618 11.5889C9.54818 12.0033 9.41058 12.4305 9.25058 12.8497C9.15938 13.0865 9.08098 13.3249 9.03298 13.5729C8.97058 13.8945 9.03458 14.0129 9.33218 14.1473C9.47458 14.2113 9.54338 14.3121 9.49378 14.4641C9.44418 14.6177 9.33218 14.6609 9.17858 14.6321C8.74018 14.5489 8.48578 14.2369 8.49378 13.7873C8.49698 13.6033 8.52418 13.4257 8.57538 13.2497C8.76418 12.5969 9.01218 11.9649 9.26498 11.3345C9.49218 10.7681 9.94498 10.4561 10.561 10.4129C10.681 10.4033 10.7322 10.3697 10.7546 10.2529C10.8298 9.86408 10.841 9.47528 10.8058 9.08168C10.7898 8.89608 10.7178 8.79528 10.5242 8.76488C10.3674 8.74088 10.2106 8.68808 10.0634 8.62728C9.91618 8.56808 9.85218 8.58568 9.80098 8.75208C9.62018 9.35688 9.36738 9.93448 9.07458 10.4945C8.93378 10.7649 8.77058 11.0241 8.58978 11.3377C8.51778 10.9409 8.46338 10.6033 8.39298 10.2673C8.36098 10.1169 8.36418 9.98088 8.42978 9.83848C8.46658 9.75688 8.56418 9.66088 8.46658 9.57288C8.31138 9.43208 8.14178 9.30888 7.97698 9.17928C7.97218 9.17448 7.94978 9.18568 7.94018 9.19368C7.78018 9.33128 7.59778 9.44968 7.47298 9.61288C7.39778 9.71048 7.54338 9.83848 7.57538 9.95688C7.58178 9.98408 7.59618 10.0129 7.59298 10.0385C7.52578 10.4513 7.45538 10.8625 7.38018 11.3137C7.32738 11.2513 7.30338 11.2273 7.28738 11.2001C6.86498 10.5185 6.52098 9.80168 6.26018 9.04328C6.20738 8.88808 6.21218 8.64808 6.07938 8.59848C5.95458 8.55208 5.76738 8.67528 5.60738 8.72008C5.52418 8.74408 5.45058 8.76648 5.41858 8.86408C5.35778 9.05288 5.27138 9.23208 5.22658 9.42088C4.93218 10.6497 5.00578 11.8657 5.38498 13.0673C5.44258 13.2497 5.51138 13.3489 5.71938 13.3889C6.12098 13.4689 6.33698 13.9089 6.19938 14.2897C6.05538 14.6913 5.62178 14.8801 5.24418 14.7073C4.86338 14.5345 4.70018 14.0657 4.92098 13.7169C5.00098 13.5905 4.99138 13.4929 4.94818 13.3681C4.54178 12.2017 4.43298 11.0081 4.62018 9.78568C4.66338 9.50408 4.75778 9.23528 4.82178 8.93768C4.26338 9.10088 3.72738 9.23688 3.24418 9.51848C2.88898 9.72488 2.61378 9.99528 2.45858 10.3889C2.27298 10.8609 2.16098 11.3505 2.06658 11.8465C1.84898 12.9985 1.78178 14.1681 1.69378 15.3345C1.66978 15.6529 1.81218 15.8497 2.06498 15.9985H13.8874C14.1882 15.8561 14.3034 15.6289 14.2682 15.2881ZM5.32738 5.44808C5.43618 5.47688 5.48738 5.52968 5.52898 5.62888C5.77378 6.21448 6.07618 6.76488 6.52578 7.22248C6.88098 7.58568 7.29218 7.85768 7.81378 7.91048C8.46978 7.97768 8.98178 7.68488 9.42498 7.24168C9.87618 6.78888 10.1898 6.24488 10.4346 5.65608C10.4682 5.57608 10.4794 5.47528 10.601 5.46408C11.0378 5.42248 11.3786 4.73128 11.3066 4.31048C11.2858 4.19048 11.241 4.08008 11.1098 4.07208C10.9466 4.06088 10.977 3.97448 11.001 3.87368C11.0874 3.51208 11.1242 3.14248 11.1418 2.82568C11.153 2.50408 11.1226 2.23688 11.0586 1.98088C10.961 1.59368 10.761 1.26088 10.3978 1.07528C10.1834 0.964882 10.0186 0.843282 9.94658 0.604882C9.91938 0.512082 9.82818 0.451282 9.75298 0.388882C9.47458 0.158482 9.14498 0.0576819 8.80258 0.0240819C7.77698 -0.0767181 6.82018 0.142482 5.97378 0.739282C5.38978 1.14888 4.98818 1.68968 4.90658 2.42568C4.85218 2.91048 4.87938 3.39048 4.97058 3.86888C4.98978 3.97128 5.03138 4.07848 4.85058 4.07528C4.76898 4.07368 4.71618 4.14248 4.68898 4.22248C4.53858 4.65128 4.88578 5.33128 5.32738 5.44808Z" fill="#DBDDE0"/>
</svg>
