<svg width="21" height="40" viewBox="0 0 21 40" fill="none" xmlns="http://www.w3.org/2000/svg">
<path d="M12.7759 16.7641V17.4881C12.7759 21.7721 12.7719 26.0601 12.7879 30.3481C12.7879 30.7641 12.6679 30.8601 12.2719 30.8521C10.9999 30.8281 9.73192 30.8401 8.45992 30.8481C8.31192 30.8481 8.09592 30.7641 8.07992 31.0441C8.06392 31.3481 8.29592 31.2841 8.46392 31.2841L12.3679 31.2881C12.4959 31.2881 12.7039 31.2241 12.7319 31.3761C12.7719 31.5881 12.5359 31.5561 12.4039 31.5921L8.47192 32.6641C8.38392 32.6881 8.29192 32.7001 8.20792 32.7361C8.03992 32.8041 8.05992 32.9561 8.08792 33.0881C8.11992 33.2641 8.27192 33.1921 8.34392 33.1561C9.06392 32.7921 9.69992 33.1001 10.3519 33.3681C11.0559 33.6601 11.7679 33.9361 12.4839 34.2001C12.7079 34.2841 12.8079 34.4041 12.7719 34.6401C12.7319 34.9161 12.5159 34.8041 12.3759 34.8081C11.0759 34.8161 9.77592 34.8121 8.47192 34.8161C8.31192 34.8161 8.08392 34.7281 8.07192 35.0401C8.05992 35.3561 8.29192 35.2721 8.45592 35.2721C8.97192 35.2801 9.48792 35.2761 10.0359 35.3601C9.47592 35.6841 8.92392 36.0161 8.35592 36.3241C8.08792 36.4681 8.00392 36.6401 8.13992 36.9721C8.80792 36.5921 9.49992 36.2601 10.1159 35.8241C10.8399 35.3121 11.6159 35.2081 12.4559 35.2641C12.6879 35.2801 12.7679 35.3321 12.7799 35.5761C12.8279 36.6641 12.8359 36.6721 11.7879 36.8761C10.7079 37.0841 9.62792 37.2761 8.54392 37.4761C8.29592 37.5241 8.07192 37.5361 8.02392 37.9041C7.86392 39.1721 6.79992 40.0601 5.59592 39.9881C4.28392 39.9041 3.33592 38.9121 3.33192 37.5681C3.31992 34.9801 3.33192 32.3921 3.33192 29.8081C3.33192 29.1481 3.32792 28.4921 3.33592 27.8321C3.33992 27.6281 3.28792 27.5561 3.06792 27.5081C1.60792 27.1801 0.971924 26.3401 0.971924 24.8361C0.975924 21.2681 0.971924 17.7041 0.971924 14.1361C0.971924 13.7521 0.971923 13.3681 1.07592 12.9961C1.35992 11.9881 2.25592 11.3001 3.31992 11.2881C4.67992 11.2761 6.04392 11.2961 7.40792 11.2721C7.77192 11.2681 7.82792 11.3961 7.82392 11.7201C7.81192 15.9761 7.81592 20.2321 7.81992 24.4881C7.81992 24.6241 7.81992 24.7641 7.82392 24.9001C7.82792 25.0401 7.89992 25.1401 8.04392 25.1401C8.18392 25.1401 8.26392 25.0401 8.27592 24.9041C8.28792 24.7681 8.28392 24.6281 8.28392 24.4921C8.28392 20.2521 8.29192 16.0121 8.27192 11.7721C8.27192 11.3521 8.39192 11.2721 8.77992 11.2801C10.0799 11.3041 11.3799 11.2961 12.6839 11.2841C13.3119 11.2801 13.8479 11.4921 14.3239 11.8841C15.7439 13.0481 17.1599 14.2161 18.5919 15.3681C19.2599 15.9041 19.5959 16.5841 19.5759 17.4361C19.5759 17.5441 19.5719 17.6521 19.5719 17.7561C19.5759 18.0761 19.4719 18.4601 19.6119 18.7041C19.7759 18.9881 20.1959 18.7801 20.4999 18.8201C20.7919 18.8561 20.9679 18.9921 20.9679 19.2801C20.9719 20.9321 21.0559 22.5881 20.9279 24.2361C20.8679 25.0361 20.4319 25.7401 19.9759 26.3961C19.3839 27.2521 18.7719 28.0921 18.1559 28.9321C17.8279 29.3801 17.6839 29.8521 17.6879 30.4241C17.7119 33.3321 17.6959 36.2401 17.6959 39.1481C17.6959 39.2841 17.7039 39.4241 17.6799 39.5601C17.6319 39.8401 17.4559 40.0041 17.1719 39.9801C16.9119 39.9601 16.7519 39.7921 16.7399 39.5321C16.7239 39.2561 16.7319 38.9801 16.7319 38.7041C16.7319 35.9481 16.7199 33.1921 16.7479 30.4361C16.7519 29.8641 16.6039 29.3921 16.2759 28.9441C15.6719 28.1161 15.0639 27.2921 14.4839 26.4441C14.0159 25.7601 13.6159 25.0401 13.4839 24.2001C13.4559 24.0201 13.4319 23.8361 13.4279 23.6521C13.4239 22.2761 13.4239 20.8961 13.4279 19.5201C13.4279 18.9481 13.5639 18.8161 14.1239 18.8121C14.2159 18.8121 14.3119 18.8241 14.3999 18.8081C14.5479 18.7761 14.7599 18.9201 14.8319 18.6801C14.8879 18.4841 14.7919 18.3361 14.6279 18.2121C14.0479 17.7681 13.4639 17.3001 12.7759 16.7641ZM17.2239 28.6161C17.9279 27.5881 18.6999 26.6801 19.3239 25.6641C19.6679 25.1001 20.0119 24.5161 20.0319 23.8481C20.0719 22.5801 20.0439 21.3081 20.0479 20.0401C20.0479 19.8561 20.0039 19.7561 19.7919 19.7641C19.5879 19.7681 19.5799 19.8921 19.5799 20.0401V20.7761C19.5799 21.5721 19.5959 22.3681 19.5759 23.1601C19.5399 24.3961 18.4999 25.4001 17.2559 25.4321C16.0599 25.4601 14.9719 24.5281 14.8999 23.3201C14.8359 22.2681 14.8719 21.2121 14.8599 20.1561C14.8599 19.9801 14.9119 19.7601 14.6119 19.7761C14.3319 19.7921 14.4239 20.0121 14.4239 20.1561C14.4159 21.3481 14.4239 22.5441 14.4199 23.7321C14.4199 24.1241 14.5239 24.4881 14.6839 24.8361C15.3239 26.2241 16.3599 27.3361 17.2239 28.6161ZM8.05992 9.0488e-05C10.6719 0.0160905 12.7959 2.15209 12.7719 4.74809C12.7519 7.32809 10.6159 9.44409 8.04392 9.44009C5.41192 9.43609 3.31592 7.28009 3.33592 4.59609C3.35592 2.09209 5.52392 -0.0159095 8.05992 9.0488e-05ZM9.91592 39.9041C10.4919 39.0841 11.0399 38.2641 11.6399 37.4841C11.8759 37.1761 12.3079 37.2521 12.6599 37.2081C12.7799 37.1921 12.7599 37.3281 12.7719 37.4161C12.9599 38.9441 11.4399 40.2961 9.91592 39.9041ZM11.0639 37.4801C10.5199 38.2601 10.0359 38.9401 9.55992 39.6281C9.45192 39.7841 9.35192 39.7561 9.21592 39.6761C8.67592 39.3601 8.33992 38.8921 8.13592 38.3081C8.05192 38.0761 8.16792 38.0081 8.35992 37.9721C9.22792 37.8161 10.0919 37.6561 11.0639 37.4801ZM9.95192 32.7281C10.8879 32.4761 11.7079 32.2601 12.5279 32.0281C12.7239 31.9721 12.7759 32.0401 12.7719 32.2201C12.7679 32.6761 12.7719 33.1361 12.7719 33.5921C12.7719 33.7521 12.7199 33.8161 12.5519 33.7521C11.7279 33.4241 10.8959 33.0961 9.95192 32.7281Z" fill="#558EFF"/>
</svg>
