<svg width="16" height="16" viewBox="0 0 16 16" fill="none" xmlns="http://www.w3.org/2000/svg">
<path d="M15 4.43379C15 3.79539 14.48 3.27539 13.8416 3.27539H2.1584C1.52 3.27539 1 3.79539 1 4.43379V5.08339H15V4.43379ZM1.0016 7.03059V11.573C1.0016 12.213 1.52 12.733 2.16 12.733H13.84C14.48 12.733 15 12.213 15 11.573V7.03059H1.0016ZM5.2992 11.0802C5.2992 11.1282 5.2592 11.1666 5.2128 11.1666H2.72C2.6736 11.1666 2.6336 11.1282 2.6336 11.0802V10.269C2.6336 10.2226 2.6736 10.1826 2.72 10.1826H5.2128C5.2592 10.1826 5.2992 10.2226 5.2992 10.269V11.0802Z" fill="#DBDDE0"/>
</svg>
