<svg width="16" height="16" viewBox="0 0 16 16" fill="none" xmlns="http://www.w3.org/2000/svg">
<path d="M4.00964 14.3248C4.02564 14.7024 4.33604 15 4.71364 15H11.2912C11.6688 15 11.9808 14.7024 11.9952 14.3248L12.4656 4.408H3.53924L4.00964 14.3248ZM9.48964 6.872C9.48964 6.7136 9.61764 6.5856 9.77604 6.5856H10.2336C10.392 6.5856 10.52 6.7152 10.52 6.872V12.5376C10.52 12.696 10.3904 12.824 10.2336 12.824H9.77604C9.61764 12.824 9.48964 12.696 9.48964 12.5376V6.872ZM7.48804 6.872C7.48804 6.7136 7.61604 6.5856 7.77444 6.5856H8.23204C8.39044 6.5856 8.51845 6.7152 8.51845 6.872V12.5376C8.51845 12.696 8.39044 12.824 8.23204 12.824H7.77444C7.61604 12.824 7.48804 12.696 7.48804 12.5376V6.872ZM5.48484 6.872C5.48484 6.7136 5.61284 6.5856 5.76964 6.5856H6.22724C6.38564 6.5856 6.51364 6.7152 6.51364 6.872V12.5376C6.51364 12.696 6.38404 12.824 6.22724 12.824H5.76964C5.61124 12.824 5.48484 12.696 5.48484 12.5376V6.872ZM12.7776 1.7216H9.74404V1.1472C9.74404 1.0656 9.67844 1 9.59684 1H6.40964C6.32804 1 6.26244 1.0656 6.26244 1.1472V1.7216H3.22724C2.98404 1.7216 2.78564 1.9184 2.78564 2.1632V3.552H13.2192V2.1632C13.2192 1.92 13.0224 1.7216 12.7776 1.7216Z" fill="#FF6760"/>
</svg>
